<?xml version="1.0" encoding="utf-8"?><svg xmlns="http://www.w3.org/2000/svg" xmlns:xlink="http://www.w3.org/1999/xlink"><symbol viewBox="0 0 16 16" stroke="currentColor" stroke-width="2" fill="none" stroke-linecap="round" stroke-linejoin="round" id="btn-arrow" xmlns="http://www.w3.org/2000/svg"><path d="M3 8h10.5M10.5 5l3 3-3 3"/></symbol><symbol viewBox="0 0 16 16" id="btn-calculator" xmlns="http://www.w3.org/2000/svg"><path d="M12.75 1c.687 0 1.25.562 1.25 1.25v11.5c0 .688-.563 1.25-1.25 1.25h-9.5C2.562 15 2 14.438 2 13.75V2.25C2 1.562 2.562 1 3.25 1h9.5ZM12 5V4c0-.55-.45-1-1-1H5c-.55 0-1 .45-1 1v1c0 .55.45 1 1 1h6c.55 0 1-.45 1-1Zm0 7V9c0-.55-.45-1-1-1s-1 .45-1 1v3c0 .55.45 1 1 1s1-.45 1-1Zm-4-2a1 1 0 1 0 0-2 1 1 0 0 0 0 2Zm0 3a1 1 0 1 0 0-2 1 1 0 0 0 0 2Zm-3-3a1 1 0 1 0 0-2 1 1 0 0 0 0 2Zm0 3a1 1 0 1 0 0-2 1 1 0 0 0 0 2Z" fill="currentColor"/></symbol><symbol viewBox="0 0 16 16" fill="currentColor" id="btn-chart" xmlns="http://www.w3.org/2000/svg"><path d="M9.01.504v5.911c0 .318.257.576.575.576h5.912c.284 0 .524-.24.502-.524A7.008 7.008 0 0 0 9.532.001a.499.499 0 0 0-.522.503M8.009 1.506V7.42c0 .319.253.572.969.572h5.517a.5.5 0 0 1 .502.525 7.009 7.009 0 0 1-7.089 6.482c-3.721-.052-6.855-3.186-6.907-6.908a7.009 7.009 0 0 1 6.483-7.089.5.5 0 0 1 .525.504"/></symbol><symbol viewBox="0 0 18 16" fill="currentColor" id="btn-chat" xmlns="http://www.w3.org/2000/svg"><path d="M16.022 12.123c-.212.25-.55.723-.647 1.301-.102.607.13 1.403.75 1.865 1.021.761 0 1.118-3 0-.73-.273-1.127-.523-1.31-.745-.885.241-1.832.372-2.815.372-4.97 0-9-3.34-9-7.458C0 3.339 4.03 0 9 0s9 3.339 9 7.458c0 1.765-.74 3.388-1.978 4.665Z"/></symbol><symbol viewBox="0 0 16 16" fill="currentColor" id="btn-check" xmlns="http://www.w3.org/2000/svg"><path d="M8 16A8 8 0 1 1 8 0a8 8 0 0 1 0 16ZM6.611 9.653 4.985 8.027a.7.7 0 0 0-.99.99l1.91 1.909a1 1 0 0 0 1.413 0l4.42-4.42a.7.7 0 0 0-.99-.99L6.61 9.653Z"/></symbol><symbol viewBox="0 0 20 20" fill="currentColor" id="btn-check-elab" xmlns="http://www.w3.org/2000/svg"><rect width="20" height="20" fill="var(--success-light)" rx="10"/><path fill="var(--success)" fill-rule="evenodd" d="M14.676 6.263a1 1 0 0 1 .061 1.413l-5.5 6a1 1 0 0 1-1.444.031l-2.5-2.5a1 1 0 1 1 1.414-1.414l1.762 1.761 4.794-5.23a1 1 0 0 1 1.413-.061Z" clip-rule="evenodd"/></symbol><symbol viewBox="0 0 16 16" fill="currentColor" id="btn-cross" xmlns="http://www.w3.org/2000/svg"><path fill-rule="evenodd" clip-rule="evenodd" d="M16 8A8 8 0 1 1 0 8a8 8 0 0 1 16 0ZM5.176 5.176a.6.6 0 0 1 .848 0L8 7.15l1.976-1.975a.6.6 0 0 1 .848.848L8.85 8l1.975 1.976a.6.6 0 0 1-.848.848L8 8.85l-1.976 1.975a.6.6 0 0 1-.848-.848L7.15 8 5.176 6.024a.6.6 0 0 1 0-.848Z"/></symbol><symbol viewBox="0 0 20 20" fill="currentColor" id="btn-cross-elab" xmlns="http://www.w3.org/2000/svg"><rect width="20" height="20" fill="var(--danger-light)" rx="10"/><path fill="var(--danger)" fill-rule="evenodd" d="M6.293 6.293a1 1 0 0 1 1.414 0L10 8.586l2.293-2.293a1 1 0 1 1 1.414 1.414L11.414 10l2.293 2.293a1 1 0 0 1-1.414 1.414L10 11.414l-2.293 2.293a1 1 0 0 1-1.414-1.414L8.586 10 6.293 7.707a1 1 0 0 1 0-1.414Z" clip-rule="evenodd"/></symbol><symbol viewBox="0 0 16 16" fill="currentColor" id="btn-document" xmlns="http://www.w3.org/2000/svg"><path d="M11 5H5c-.55 0-1-.45-1-1s.45-1 1-1h6c.55 0 1 .45 1 1s-.45 1-1 1m0 4H5c-.55 0-1-.45-1-1s.45-1 1-1h6c.55 0 1 .45 1 1s-.45 1-1 1m-2 4H5c-.55 0-1-.45-1-1s.45-1 1-1h4c.55 0 1 .45 1 1s-.45 1-1 1m3.75-12h-9.5C2.56 1 2 1.49 2 2.094v11.812C2 14.51 2.56 15 3.25 15h9.5c.69 0 1.25-.49 1.25-1.094V2.094C14 1.49 13.44 1 12.75 1"/></symbol><symbol viewBox="0 0 16 16" fill="currentColor" id="btn-download" xmlns="http://www.w3.org/2000/svg"><path d="M12 9v3H4V9H2v4a1 1 0 0 0 1 1h10a1 1 0 0 0 1-1V9h-2Z"/><path d="M11.5 6H9V2H7v4H4.5L8 10z"/></symbol><symbol viewBox="0 0 16 16" fill="currentColor" id="btn-flame" xmlns="http://www.w3.org/2000/svg"><path d="M8.038 14c-.901 0-2.879-.752-2.879-2.873 0-.588.189-1.231.523-1.839a.178.178 0 0 1 .297-.021c.237.313.861.887.822.535-.137-1.171.113-2.01 1.228-2.708.117-.073.281-.018.319.114.415 1.459 2.493 1.949 2.493 4.208 0 1.822-1.685 2.584-2.803 2.584M8.745.231c-.046-.199-.287-.292-.462-.188-2.738 1.627-3.352 3.58-3.032 6.333.02.178-.167.313-.319.22a5.803 5.803 0 0 1-1.613-1.509.35.35 0 0 0-.586.031C1.94 6.539 1.49 8.042 1.49 9.417 1.49 14.277 6.02 16 8.087 16c2.562 0 6.423-1.746 6.423-5.922 0-5.281-4.956-6.341-5.765-9.847"/></symbol><symbol viewBox="0 0 18 18" id="btn-globe" xmlns="http://www.w3.org/2000/svg"><path fill="currentColor" d="M8.99 0C4.023 0 0 4.032 0 9s4.023 9 8.99 9C13.968 18 18 13.968 18 9s-4.032-9-9.01-9zm6.237 5.4h-2.655a14.084 14.084 0 0 0-1.242-3.204A7.231 7.231 0 0 1 15.227 5.4zM9 1.836A12.68 12.68 0 0 1 10.719 5.4H7.28A12.68 12.68 0 0 1 9 1.836zM2.034 10.8C1.9 10.224 1.8 9.62 1.8 9s.1-1.224.234-1.8h3.042c-.072.594-.126 1.188-.126 1.8s.054 1.206.126 1.8H2.034zm.738 1.8h2.655a14.084 14.084 0 0 0 1.242 3.204A7.19 7.19 0 0 1 2.772 12.6zm2.655-7.2H2.772a7.19 7.19 0 0 1 3.897-3.204c-.54 1-.954 2.08-1.242 3.204zM9 16.164A12.68 12.68 0 0 1 7.281 12.6h3.438A12.68 12.68 0 0 1 9 16.164zm2.106-5.364H6.894c-.08-.594-.144-1.188-.144-1.8s.063-1.215.144-1.8h4.212c.08.585.144 1.188.144 1.8s-.063 1.206-.144 1.8zm.225 5.004c.54-1 .954-2.08 1.242-3.204h2.655a7.223 7.223 0 0 1-3.897 3.204zm1.593-5.004c.072-.594.126-1.188.126-1.8s-.054-1.206-.126-1.8h3.042c.144.576.234 1.18.234 1.8s-.1 1.224-.234 1.8h-3.042z"/></symbol><symbol viewBox="0 0 18 14" fill="currentColor" id="btn-mail" xmlns="http://www.w3.org/2000/svg"><path d="M9 7.7c-1.463 0-9-5.676-9-5.676V1.4C0 .627.671 0 1.5 0h15c.829 0 1.5.627 1.5 1.4l-.012.7S10.533 7.7 9 7.7Zm0 1.925c1.603 0 8.988-5.425 8.988-5.425L18 12.6c0 .773-.671 1.4-1.5 1.4h-15C.672 14 0 13.373 0 12.6l.012-8.4S7.537 9.625 9 9.625Z"/></symbol><symbol viewBox="0 0 16 16" fill="currentColor" id="btn-ottonova" xmlns="http://www.w3.org/2000/svg"><path d="M13.15 7.717a5.184 5.184 0 0 1-5.122 5.985 5.183 5.183 0 0 1-5.18-5.187A5.186 5.186 0 0 1 7.81 3.332l.16-.004s.057-.003.16 0l.38.01a7.75 7.75 0 0 0 3.319-.649c.203-.09.387-.193.555-.3A3.83 3.83 0 0 0 13.786.787c.212-.452.26-.787.26-.787s-.562.518-1.612.787c-.37.095-.8.16-1.288.16H7.97L7.81.95C3.742 1.034.47 4.37.47 8.473.47 12.63 3.828 16 7.97 16s7.5-3.37 7.5-7.527c0-.255-.013-.507-.038-.756h-2.28z"/><path d="M8.133 3.332a5.18 5.18 0 0 1 1.231.173 5.19 5.19 0 0 1 3.849 4.972h2.257V8.46c-.01-4.094-3.276-7.42-7.337-7.508v2.38z"/></symbol><symbol viewBox="0 0 20 20" id="btn-payback" xmlns="http://www.w3.org/2000/svg"><rect width="20" height="20" rx="2" fill="#0046aa"/><g stroke="#fff" style="stroke-width:.4"><g fill="#fff"><circle cx="15" cy="5" r="2"/><circle cx="10" cy="10" r="2"/></g><g fill="#0046aa"><circle cx="5" cy="10" r="2"/><circle cx="10" cy="5" r="2"/><circle cx="5" cy="5" r="2"/><circle cx="10" cy="15" r="2"/><circle cx="5" cy="15" r="2"/></g><g fill="#fff"><circle cx="15" cy="15" r="2"/><circle cx="15" cy="10" r="2"/></g></g></symbol><symbol viewBox="0 0 16 16" id="btn-phone" xmlns="http://www.w3.org/2000/svg"><path fill="currentColor" d="M7.803 13.7c-1.24-.81-2.28-1.83-3.163-3.014-.983-1.317-1.737-2.75-2.16-4.347-.27-1.015-.39-2.043-.282-3.095.05-.515.285-.927.695-1.218a5.827 5.827 0 0 1 1.05-.603c.408-.175.844-.285 1.272-.41.208-.062.348.01.443.203l1.497 3.04c.14.286.052.56-.226.726l-1.01.59c-.35.203-.466.495-.33.873.07.192.13 1.156 1.09 2.48s1.9 1.706 2.043 1.824c.293.225.62.204.898-.043l.874-.78c.27-.24.543-.233.805.02l2.374 2.3c.193.188.207.31.065.544-.345.57-.733 1.104-1.238 1.543a3.95 3.95 0 0 1-.615.435c-.37.213-.694.254-1.21.165-.984-.195-1.96-.65-2.876-1.246"/></symbol><symbol fill="none" viewBox="0 0 40 40" id="btn-phone-cta" xmlns="http://www.w3.org/2000/svg"><path fill="#07F" fill-rule="evenodd" d="M40 20c0 11.045-8.955 20-20 20S0 31.045 0 20 8.955 0 20 0s20 8.955 20 20z" clip-rule="evenodd"/><g filter="url(#apa)"><path fill="#fff" d="M19.811 28.31c-1.775-1.157-3.262-2.62-4.526-4.313-1.408-1.885-2.487-3.937-3.091-6.222-.384-1.452-.557-2.925-.404-4.429.074-.737.409-1.327.996-1.744a8.24 8.24 0 0 1 1.503-.863c.584-.25 1.21-.407 1.821-.589.298-.088.498.014.635.29.716 1.45 1.43 2.902 2.142 4.354.2.41.075.803-.323 1.039-.481.284-.965.564-1.448.846-.5.291-.666.709-.471 1.25.1.275.186 1.655 1.563 3.55 1.376 1.893 2.704 2.442 2.924 2.61.42.323.886.293 1.284-.06l1.251-1.117c.387-.343.778-.334 1.152.03 1.133 1.101 2.266 2.203 3.398 3.306.276.269.296.445.094.779-.494.813-1.05 1.58-1.773 2.208a5.63 5.63 0 0 1-.88.623c-.529.304-.993.363-1.73.237-1.409-.281-2.807-.931-4.117-1.785z"/><path fill="url(#apb)" d="M19.811 28.31c-1.775-1.157-3.262-2.62-4.526-4.313-1.408-1.885-2.487-3.937-3.091-6.222-.384-1.452-.557-2.925-.404-4.429.074-.737.409-1.327.996-1.744a8.24 8.24 0 0 1 1.503-.863c.584-.25 1.21-.407 1.821-.589.298-.088.498.014.635.29.716 1.45 1.43 2.902 2.142 4.354.2.41.075.803-.323 1.039-.481.284-.965.564-1.448.846-.5.291-.666.709-.471 1.25.1.275.186 1.655 1.563 3.55 1.376 1.893 2.704 2.442 2.924 2.61.42.323.886.293 1.284-.06l1.251-1.117c.387-.343.778-.334 1.152.03 1.133 1.101 2.266 2.203 3.398 3.306.276.269.296.445.094.779-.494.813-1.05 1.58-1.773 2.208a5.63 5.63 0 0 1-.88.623c-.529.304-.993.363-1.73.237-1.409-.281-2.807-.931-4.117-1.785z"/></g><defs><linearGradient id="apb" x1="1.635" x2="2.65" y1="3.591" y2="39.07" gradientUnits="userSpaceOnUse"><stop stop-color="#fff" stop-opacity=".238"/><stop offset="1" stop-color="#07F" stop-opacity=".477"/></linearGradient><filter id="apa" width="20.711" height="24.538" x="9.735" y="9.62" color-interpolation-filters="sRGB" filterUnits="userSpaceOnUse"><feFlood flood-opacity="0" result="BackgroundImageFix"/><feColorMatrix in="SourceAlpha" values="0 0 0 0 0 0 0 0 0 0 0 0 0 0 0 0 0 0 127 0"/><feOffset dy="2"/><feGaussianBlur stdDeviation="1"/><feColorMatrix values="0 0 0 0 0.116421 0 0 0 0 0.145021 0 0 0 0 0.614636 0 0 0 0.236724 0"/><feBlend in2="BackgroundImageFix" result="effect1_dropShadow"/><feBlend in="SourceGraphic" in2="effect1_dropShadow" result="shape"/><feColorMatrix in="SourceAlpha" result="hardAlpha" values="0 0 0 0 0 0 0 0 0 0 0 0 0 0 0 0 0 0 127 0"/><feOffset dy=".5"/><feGaussianBlur stdDeviation=".25"/><feComposite in2="hardAlpha" k2="-1" k3="1" operator="arithmetic"/><feColorMatrix values="0 0 0 0 1 0 0 0 0 1 0 0 0 0 1 0 0 0 1 0"/><feBlend in2="shape" result="effect2_innerShadow"/><feColorMatrix in="SourceAlpha" result="hardAlpha" values="0 0 0 0 0 0 0 0 0 0 0 0 0 0 0 0 0 0 127 0"/><feOffset dy="-.5"/><feGaussianBlur stdDeviation=".25"/><feComposite in2="hardAlpha" k2="-1" k3="1" operator="arithmetic"/><feColorMatrix values="0 0 0 0 0.0568599 0 0 0 0 0.258909 0 0 0 0 0.489822 0 0 0 0.430763 0"/><feBlend in2="effect2_innerShadow" result="effect3_innerShadow"/></filter></defs></symbol><symbol viewBox="0 0 16 16" id="btn-play" xmlns="http://www.w3.org/2000/svg"><path fill="currentColor" d="M3 13.197c0 1.198 1.335 1.913 2.332 1.248l7.796-5.197a1.5 1.5 0 0 0 0-2.496L5.332 1.555C4.335.89 3 1.605 3 2.803v10.394z"/></symbol><symbol viewBox="0 0 16 16" fill="currentColor" id="btn-quote" xmlns="http://www.w3.org/2000/svg"><path d="M3.726 14.062c-.183.182-.347.272-.493.272-.146 0-.293-.073-.439-.217l-.324-.393a.33.33 0 0 1-.006-.412c.61-.785 1.022-1.423 1.235-1.912.347-.797.52-1.575.52-2.336 0-.254-.036-.453-.11-.598a4.703 4.703 0 0 1-.876.109c-.913 0-1.68-.317-2.301-.95C.31 6.991 0 6.239 0 5.37c0-.979.329-1.785.986-2.418C1.644 2.318 2.466 2 3.452 2c1.132 0 2.037.435 2.712 1.305.676.869 1.014 1.938 1.014 3.205a9.61 9.61 0 0 1-.959 4.184c-.639 1.34-1.47 2.463-2.493 3.368m8.822 0c-.183.182-.347.272-.493.272-.146 0-.292-.073-.439-.217l-.324-.393a.33.33 0 0 1-.006-.412c.61-.785 1.022-1.423 1.234-1.912.348-.797.521-1.575.521-2.336 0-.254-.037-.453-.109-.598a4.721 4.721 0 0 1-.877.109c-.913 0-1.681-.317-2.302-.95-.621-.634-.931-1.386-.931-2.255 0-.979.329-1.785.986-2.418.658-.634 1.48-.952 2.466-.952 1.132 0 2.036.435 2.712 1.305C15.662 4.174 16 5.243 16 6.51a9.61 9.61 0 0 1-.959 4.184c-.639 1.34-1.47 2.463-2.493 3.368"/></symbol><symbol viewBox="0 0 16 16" fill="currentColor" id="btn-shield" xmlns="http://www.w3.org/2000/svg"><path d="M1.03 3.006c.014-.492.298-.942.756-1.202C3.904.603 5.93 0 8 0s4.185.603 6.21 1.81c.433.26.704.692.723 1.163.172 4.335 0 7.006-.51 8.004-.522 1.015-2.56 2.654-6.038 4.908a.7.7 0 0 1-.387.111.684.684 0 0 1-.383-.11c-3.583-2.343-5.57-3.978-6.047-4.908-.467-.91-.648-3.567-.54-7.97zM7.5 10.26l.07-.003a1 1 0 0 0 .729-.397l3-4a1 1 0 1 0-1.6-1.2L7.392 7.74 6.207 6.554a1 1 0 0 0-1.414 1.414l2 2a.99.99 0 0 0 .707.293z"/></symbol><symbol viewBox="0 0 18 18" stroke="currentColor" fill="none" stroke-width="2" stroke-linecap="round" id="btn-signin" xmlns="http://www.w3.org/2000/svg"><path d="M4 4.75V2.5A1.5 1.5 0 0 1 5.5 1h9A1.5 1.5 0 0 1 16 2.5v13a1.5 1.5 0 0 1-1.5 1.5h-9A1.5 1.5 0 0 1 4 15.5v-2.25M2.5 9H12"/><path d="M8.5 5.5 12 9l-3.5 3.5"/></symbol><symbol viewBox="0 0 16 16" fill="currentColor" id="btn-star" xmlns="http://www.w3.org/2000/svg"><path d="m14.5 5.96-4.13-.601-1.847-3.756a.607.607 0 0 0-1.05 0L5.63 5.359 1.5 5.96a.584.584 0 0 0-.324.998l2.99 2.928-.708 4.128a.582.582 0 0 0 .847.617L8 12.68l3.695 1.95a.582.582 0 0 0 .847-.617l-.707-4.129 2.989-2.927a.587.587 0 0 0-.323-.999v.004Z"/></symbol><symbol fill="none" viewBox="0 0 50 50" id="btn-thumbs" xmlns="http://www.w3.org/2000/svg"><g clip-path="url(#awa)" fill="currentcolor"><path d="M24.59.549c.569.207 1.158.485 1.726.8 1.903 1.055 2.807 3.17 2.954 5.342l.697 10.276h14.48c2.803 0 5.079 2.306 4.907 5.103-.585 9.496-2.371 15.18-7.005 21.498-1.234 1.684-3.239 2.598-5.326 2.598H16.166a3 3 0 0 1-3-3V22.78a13 13 0 0 1 1.325-5.718l7.451-15.214C22.448.82 23.514.157 24.59.55Z"/><rect x=".5" y="20.5" width="10" height="25" rx="3"/></g><defs><clipPath id="awa"><path fill="#fff" transform="translate(.5)" d="M0 0h49v50H0z"/></clipPath></defs></symbol><symbol viewBox="0 0 16 16" fill="currentColor" id="btn-toggle" xmlns="http://www.w3.org/2000/svg"><path d="M5 11c-1.7 0-3-1.3-3-3s1.3-3 3-3 3 1.3 3 3-1.3 3-3 3m6-8H5C2.2 3 0 5.2 0 8s2.2 5 5 5h6c2.8 0 5-2.2 5-5s-2.2-5-5-5"/></symbol><symbol viewBox="0 0 16 16" id="btn-user" xmlns="http://www.w3.org/2000/svg"><path fill="currentColor" d="M4.262 10.213h7.475a3.266 3.266 0 0 1 3.245 2.894l.14 1.222A1.5 1.5 0 0 1 13.633 16H2.367a1.5 1.5 0 0 1-1.49-1.671l.14-1.222a3.266 3.266 0 0 1 3.245-2.894zM8.166 8.85c-2.204 0-4-1.98-4-4.426S5.962 0 8.166 0s4 1.98 4 4.426-1.786 4.426-4 4.426z"/></symbol><symbol fill="none" viewBox="0 0 40 40" id="btn-user-cta" xmlns="http://www.w3.org/2000/svg"><path fill="#07F" fill-rule="evenodd" d="M40 20c0 11.045-8.955 20-20 20S0 31.045 0 20 8.955 0 20 0s20 8.955 20 20" clip-rule="evenodd"/><g filter="url(#aya)"><path fill="url(#ayb)" fill-rule="evenodd" d="M20.01 11.333c2.209 0 4 1.858 4 4.148v1.038c0 2.29-1.791 4.148-4 4.148-2.208 0-4-1.858-4-4.148V15.48c0-2.29 1.792-4.148 4-4.148" clip-rule="evenodd"/></g><g filter="url(#ayc)" fill-rule="evenodd" clip-rule="evenodd"><path fill="#fff" d="M27.072 26.327c-3.574-5.127-10.808-4.786-14.144 0a1.451 1.451 0 0 0 1.188 2.281h11.768a1.451 1.451 0 0 0 1.189-2.281"/><path fill="url(#ayd)" d="M27.072 26.327c-3.574-5.127-10.808-4.786-14.144 0a1.451 1.451 0 0 0 1.188 2.281h11.768a1.451 1.451 0 0 0 1.189-2.281"/></g><defs><linearGradient id="ayb" x1="20.01" x2="20.01" y1="11.333" y2="20.667" gradientUnits="userSpaceOnUse"><stop stop-color="#97C8FF"/><stop offset="1" stop-color="#6BB0FF"/></linearGradient><linearGradient id="ayd" x1="3.156" x2="3.919" y1="20.576" y2="33.209" gradientUnits="userSpaceOnUse"><stop stop-color="#fff" stop-opacity=".238"/><stop offset="1" stop-color="#07F" stop-opacity=".477"/></linearGradient><filter id="aya" width="12" height="13.833" x="14.01" y="10.833" color-interpolation-filters="sRGB" filterUnits="userSpaceOnUse"><feFlood flood-opacity="0" result="BackgroundImageFix"/><feColorMatrix in="SourceAlpha" values="0 0 0 0 0 0 0 0 0 0 0 0 0 0 0 0 0 0 127 0"/><feOffset dy="2"/><feGaussianBlur stdDeviation="1"/><feColorMatrix values="0 0 0 0 0.116421 0 0 0 0 0.145021 0 0 0 0 0.614636 0 0 0 0.236724 0"/><feBlend in2="BackgroundImageFix" result="effect1_dropShadow"/><feBlend in="SourceGraphic" in2="effect1_dropShadow" result="shape"/><feColorMatrix in="SourceAlpha" result="hardAlpha" values="0 0 0 0 0 0 0 0 0 0 0 0 0 0 0 0 0 0 127 0"/><feOffset dy=".5"/><feGaussianBlur stdDeviation=".25"/><feComposite in2="hardAlpha" k2="-1" k3="1" operator="arithmetic"/><feColorMatrix values="0 0 0 0 1 0 0 0 0 1 0 0 0 0 1 0 0 0 0.355922 0"/><feBlend in2="shape" result="effect2_innerShadow"/><feColorMatrix in="SourceAlpha" result="hardAlpha" values="0 0 0 0 0 0 0 0 0 0 0 0 0 0 0 0 0 0 127 0"/><feOffset dy="-.5"/><feGaussianBlur stdDeviation=".25"/><feComposite in2="hardAlpha" k2="-1" k3="1" operator="arithmetic"/><feColorMatrix values="0 0 0 0 0.0568599 0 0 0 0 0.258909 0 0 0 0 0.489822 0 0 0 0.430763 0"/><feBlend in2="effect2_innerShadow" result="effect3_innerShadow"/></filter><filter id="ayc" width="18.667" height="10.5" x="10.666" y="22.108" color-interpolation-filters="sRGB" filterUnits="userSpaceOnUse"><feFlood flood-opacity="0" result="BackgroundImageFix"/><feColorMatrix in="SourceAlpha" values="0 0 0 0 0 0 0 0 0 0 0 0 0 0 0 0 0 0 127 0"/><feOffset dy="2"/><feGaussianBlur stdDeviation="1"/><feColorMatrix values="0 0 0 0 0.116421 0 0 0 0 0.145021 0 0 0 0 0.614636 0 0 0 0.236724 0"/><feBlend in2="BackgroundImageFix" result="effect1_dropShadow"/><feBlend in="SourceGraphic" in2="effect1_dropShadow" result="shape"/><feColorMatrix in="SourceAlpha" result="hardAlpha" values="0 0 0 0 0 0 0 0 0 0 0 0 0 0 0 0 0 0 127 0"/><feOffset dy=".5"/><feGaussianBlur stdDeviation=".25"/><feComposite in2="hardAlpha" k2="-1" k3="1" operator="arithmetic"/><feColorMatrix values="0 0 0 0 1 0 0 0 0 1 0 0 0 0 1 0 0 0 1 0"/><feBlend in2="shape" result="effect2_innerShadow"/><feColorMatrix in="SourceAlpha" result="hardAlpha" values="0 0 0 0 0 0 0 0 0 0 0 0 0 0 0 0 0 0 127 0"/><feOffset dy="-.5"/><feGaussianBlur stdDeviation=".25"/><feComposite in2="hardAlpha" k2="-1" k3="1" operator="arithmetic"/><feColorMatrix values="0 0 0 0 0.0568599 0 0 0 0 0.258909 0 0 0 0 0.489822 0 0 0 0.430763 0"/><feBlend in2="effect2_innerShadow" result="effect3_innerShadow"/></filter></defs></symbol><symbol viewBox="0 0 6 10" id="list-arrowLeft" xmlns="http://www.w3.org/2000/svg"><path stroke="currentColor" fill="none" stroke-width="2" stroke-linecap="round" stroke-linejoin="round" d="M5 9 1 5l4-4"/></symbol><symbol viewBox="0 0 6 10" id="list-arrowRight" xmlns="http://www.w3.org/2000/svg"><path stroke="currentColor" fill="none" stroke-width="2" stroke-linecap="round" stroke-linejoin="round" d="m1 1 4 4-4 4"/></symbol><symbol viewBox="0 0 20 20" fill="currentColor" id="list-checkmark" xmlns="http://www.w3.org/2000/svg"><circle opacity=".15" cx="10" cy="10" r="10"/><path d="M6.154 9.6 5 10.8 8.077 14 15 7.2 13.846 6l-5.77 5.6z"/></symbol><symbol fill="none" viewBox="0 0 148 26" id="logo-color" xmlns="http://www.w3.org/2000/svg"><path d="M104.256 7.183c1.756-1.625 2.025-3.906 2.025-3.906s-1.566 1.696-4.127 1.696c-2.023 0-3.568-.015-4.13-.02l-.227-.002c-5.767 0-10.44 4.67-10.44 10.43s4.675 10.43 10.44 10.43 10.44-4.67 10.44-10.43a10.4 10.4 0 0 0-3.983-8.196zm-6.458 14.493c-3.48 0-6.304-2.82-6.304-6.298s2.823-6.298 6.304-6.298a6.42 6.42 0 0 1 .569.025l.12.013c.025.002.054.006.092.008a6.3 6.3 0 0 1 5.525 6.25 6.3 6.3 0 0 1-6.304 6.3z" fill="#07f"/><path d="M105.57 8.414a13.57 13.57 0 0 1-5.054 1.281 6.21 6.21 0 0 0-1.936-.567c.556.042 2.52.006 4.604-1.165a5.61 5.61 0 0 0 1.073-.781 10.46 10.46 0 0 1 1.313 1.231z" fill="#05b"/><path d="m122.95 5.225-5.216 14.408h-.042l-5.3-14.408h-4.927l8.03 20.203h4.43l7.992-20.203h-4.967zm-45.57 0c-2.608 0-4.506.487-6.058 1.677V5.22h-4.666v20.203h4.637v-9.848c0-3.975 1.78-6.168 4.925-6.168 2.775 0 4.68 1.367 4.68 5.63v10.385h4.637V13.837c0-5.68-3.723-8.612-8.154-8.612zM54.433 4.83c-5.77 0-10.45 4.68-10.45 10.45s4.68 10.45 10.45 10.45 10.45-4.68 10.45-10.45-4.68-10.45-10.45-10.45zm0 16.56c-3.375 0-6.112-2.735-6.112-6.112s2.735-6.112 6.112-6.112a6.11 6.11 0 0 1 6.112 6.112 6.114 6.114 0 0 1-6.112 6.112zM23.6 5.233h-2.483v3.933H23.6v9.895c0 4.512 2.152 6.706 5.63 6.706 2.65 0 3.26-.608 3.26-.608l-.904-3.917s-.617.18-1.404.18c-1.325 0-1.946-.746-1.946-2.814v-9.44h6.798v9.895c0 4.512 2.152 6.706 5.63 6.706 2.65 0 3.26-.608 3.26-.608l-.904-3.917s-.617.18-1.404.18c-1.325 0-1.946-.746-1.946-2.814V9.17h3.992V5.233H39.67V0l-4.637 1.494v3.74h-6.798V0L23.6 1.494v3.74zM10.666 25.728c5.77 0 10.45-4.68 10.45-10.45s-4.68-10.45-10.45-10.45S.216 9.508.216 15.28s4.68 10.45 10.45 10.45zm0-16.56c3.375 0 6.112 2.735 6.112 6.112s-2.735 6.112-6.112 6.112-6.112-2.735-6.112-6.112a6.11 6.11 0 0 1 6.112-6.112zm126.668-4.24c-5.77 0-10.45 4.68-10.45 10.45s4.68 10.45 10.45 10.45 10.45-4.68 10.45-10.45-4.68-10.45-10.45-10.45zm0 16.562c-3.375 0-6.112-2.735-6.112-6.112s2.735-6.112 6.112-6.112a6.11 6.11 0 0 1 6.112 6.112 6.113 6.113 0 0 1-6.112 6.112zm10.45-16.268h-4.338V25.43h4.338V5.223z" fill="#00104b"/></symbol><symbol fill="none" viewBox="0 0 226 48" id="logo-healthx" xmlns="http://www.w3.org/2000/svg"><path d="M65.553 32.512H41.5c1.058 4.626 4.494 7.534 9.384 7.534 3.833 0 6.608-1.718 8.194-3.833l5.287 4.493c-2.776 3.569-7.401 6.212-13.878 6.212-9.647 0-16.784-6.74-16.784-17.049 0-10.177 6.872-16.917 16.124-16.917 9.78 0 15.991 7.005 15.991 16.52 0 1.322-.132 2.512-.264 3.04Zm-23.921-6.08h16.52c-.925-3.964-3.7-6.74-7.93-6.74-4.229.133-7.401 2.511-8.59 6.74ZM146.834 7.534V0v7.533Zm-11.498 32.248s-1.058.265-2.247.265c-2.115 0-3.172-1.19-3.172-4.626V20.089h6.476v-6.476h-6.476v-8.59L122.384 7.4v6.08h-4.097v6.476h4.097V36.08c0 7.4 3.568 10.97 9.251 10.97 4.361 0 5.287-1.058 5.287-1.058l-1.586-6.212ZM107.713 2.38V47.05h7.534V0l-7.534 2.379ZM94.497 13.481v2.775a17.039 17.039 0 0 0-9.912-3.172c-9.384 0-17.05 7.666-17.05 17.05 0 9.383 7.666 17.048 17.05 17.048 3.7 0 7.137-1.189 9.912-3.172v2.38h7.005V13.48h-7.005Zm-9.912 26.432c-5.551 0-9.912-4.493-9.912-9.912 0-5.55 4.493-9.912 9.912-9.912 5.55 0 9.912 4.494 9.912 9.912 0 5.419-4.361 9.912-9.912 9.912Zm-67.14-26.3c-4.229 0-7.268.793-9.912 2.775V0L0 2.379v44.143h7.533V30.398c0-6.476 2.908-10.045 8.062-10.045 4.494 0 7.666 2.247 7.666 9.12v16.916h7.533V27.622c0-9.251-6.08-14.01-13.348-14.01Zm139.301 0c-4.229 0-7.269.793-9.912 2.775V0l-7.533 2.379v44.143h7.533V30.398c0-6.476 2.907-10.045 8.062-10.045 4.493 0 7.665 2.247 7.665 9.12v16.916h7.534V27.622c-.132-9.251-6.212-14.01-13.349-14.01Z" fill="#fff"/><path d="M226 1.057h-16.521l-6.74 10.177-6.608-10.177H179.61l14.935 22.6-14.935 22.6h16.521l6.608-10.176 6.74 10.176H226l-14.935-22.6L226 1.057Z" fill="#07F"/><path d="M196.131 46.257c1.454-2.775 4.097-11.63-1.586-22.6l8.194 12.424-6.608 10.176ZM209.479 1.057c-1.454 2.776-4.097 11.63 1.586 22.6l-8.194-12.423 6.608-10.177Z" fill="#05B"/></symbol><symbol fill="none" viewBox="0 0 148 26" id="logo-white" xmlns="http://www.w3.org/2000/svg"><path d="M97.84 21.69a6.32 6.32 0 0 1-.002-12.645h.002l.57.027.12.013a.883.883 0 0 0 .09.008c.687.085 1.34.28 1.938.568h.002a6.326 6.326 0 0 1 3.592 5.707 6.32 6.32 0 0 1-6.314 6.322zm7.782-13.315v-.002c-.402-.448-.84-.862-1.315-1.235 1.757-1.632 2.03-3.922 2.03-3.922s-1.57 1.703-4.133 1.703c-2.025 0-3.575-.015-4.135-.022l-.228-.002c-5.777 0-10.458 4.688-10.458 10.472S92.062 25.84 97.84 25.84s10.457-4.688 10.457-10.472a10.43 10.43 0 0 0-2.675-6.993z" fill="#fff"/><path d="M105.62 8.374v.002a13.535 13.535 0 0 1-5.06 1.287h-.002a6.217 6.217 0 0 0-1.938-.568c1.7.127 4.272-.644 5.685-1.955.474.373.913.787 1.315 1.235z" fill="#bfc3d2"/><path d="M60.527 15.35a6.13 6.13 0 0 0-6.121-6.137 6.13 6.13 0 0 0 0 12.273 6.13 6.13 0 0 0 6.121-6.137zm4.344 0c0 5.794-4.685 10.49-10.465 10.49S43.94 21.144 43.94 15.35 48.626 4.86 54.405 4.86 64.87 9.555 64.87 15.35zM77.4 5.254c-2.612 0-4.514.49-6.068 1.685v-1.69h-4.674v20.286h4.644v-9.887c0-3.99 1.782-6.194 4.933-6.194 2.778 0 4.686 1.372 4.686 5.654v10.428h4.644V13.9c0-5.7-3.73-8.647-8.166-8.647zm45.64 0-5.225 14.466h-.042l-5.307-14.466h-4.934l8.044 20.286h4.437l8.002-20.286h-4.975zm20.526 10.096a6.13 6.13 0 0 0-6.121-6.136 6.13 6.13 0 0 0-6.12 6.136 6.13 6.13 0 0 0 6.12 6.137 6.13 6.13 0 0 0 6.121-6.137zM147.9 5.152v20.3h-4.344v-1.586a10.391 10.391 0 0 1-6.12 1.984c-5.78 0-10.464-4.697-10.464-10.49s4.685-10.49 10.464-10.49c2.287 0 4.4.737 6.12 1.984v-1.7h4.344zM16.694 15.35a6.13 6.13 0 0 0-6.121-6.137 6.13 6.13 0 0 0-6.121 6.137 6.13 6.13 0 0 0 6.121 6.137 6.13 6.13 0 0 0 6.121-6.137zm4.344 0c0 5.794-4.685 10.49-10.465 10.49S.108 21.144.108 15.35 4.793 4.86 10.573 4.86s10.465 4.697 10.465 10.49zm21.94 5.986.906 3.933s-.612.612-3.266.612c-3.483 0-5.64-2.203-5.64-6.734V9.21H28.17v9.478c0 2.08.622 2.827 1.95 2.827.788 0 1.406-.18 1.406-.18l.906 3.933s-.612.612-3.266.612c-3.483 0-5.64-2.203-5.64-6.734V9.21h-2.488V5.26h2.488V1.507l4.644-1.5v5.254h6.808V1.507l4.644-1.5v5.254h3.998v3.95h-4v9.478c0 2.08.622 2.827 1.95 2.827.788 0 1.406-.18 1.406-.18z" fill="#fff"/></symbol><symbol viewBox="0 0 16 16" id="misc-bank" xmlns="http://www.w3.org/2000/svg"><rect fill="#50E3C2" width="16" height="16" rx="3.28"/><g fill="#FFF"><path d="M8 7c1.45 0 3-.45 3-1.5S9.45 4 8 4s-3 .45-3 1.5S6.55 7 8 7ZM5 7.25V8c0 1.05 1.55 1.5 3 1.5s3-.45 3-1.5v-.75C10.3 7.7 9.25 8 8 8s-2.3-.3-3-.75ZM5 9.75v.75C5 11.55 6.55 12 8 12s3-.45 3-1.5v-.75c-.7.5-1.75.75-3 .75s-2.3-.3-3-.75Z"/></g></symbol><symbol viewBox="0 0 36 36" fill="none" id="misc-chart" xmlns="http://www.w3.org/2000/svg"><style>.bhB{stroke:#07f}.bhC{stroke-width:2}.bhD{stroke-linejoin:round}.bhE{stroke-linecap:round}</style><path d="M5 31.673h26H5z" class="bhB bhC bhD"/><mask id="bhA" maskUnits="userSpaceOnUse" x="4" y="4" width="28" height="29"><path fill-rule="evenodd" d="M4 32.673h28v-28H4v28z" fill="#fff"/></mask><g mask="url(#bhA)" class="bhB bhC bhD"><path d="M7 31.673h4v-15H7v15zm9 0h4v-21h-4v21zm9 0h4v-26h-4v26z"/><path d="M7 26.673h4" class="bhE"/></g><path d="M16 26.673h4m5 0h4" class="bhB bhC bhD bhE"/></symbol><symbol viewBox="0 0 36 36" fill="none" id="misc-eat" xmlns="http://www.w3.org/2000/svg"><path d="M18 11.3c.2-2 1.2-5.8 4.3-8.4" stroke="currentColor" stroke-width="2" stroke-miterlimit="10" stroke-linecap="round" stroke-linejoin="round"/><path clip-rule="evenodd" d="M12.5 2c-1 6.3 1.1 8.6 5.2 7.8 2.3-3.5 1-6.3-5.2-7.8Z" stroke="currentColor" stroke-width="2" stroke-miterlimit="10" stroke-linecap="round" stroke-linejoin="round"/><path clip-rule="evenodd" d="M24.4 9.7c-4.4 0-6.4 1.6-6.4 1.6s-1.9-1.6-6.4-1.6C6.5 9.7 3 14.5 3 19.9c0 9.6 5 13.8 9.4 13.8 4.1 0 5.6-1.7 5.6-1.7s1.5 1.7 5.6 1.7c4.4 0 9.4-4.2 9.4-13.8 0-5.4-3.4-10.2-8.6-10.2Z" stroke="currentColor" stroke-width="2" stroke-miterlimit="10" stroke-linecap="round" stroke-linejoin="round"/><path d="M15.584 17.35a1.178 1.178 0 1 1-1.243 2.002c-.553-.344-1.342-1.455-.998-2.008.343-.552 1.689-.337 2.241.006ZM13.982 20.577a1.178 1.178 0 1 1 0 2.356c-.65 0-1.907-.527-1.907-1.178 0-.65 1.257-1.178 1.907-1.178ZM14.152 24.145a1.178 1.178 0 0 1 1.216 2.018c-.557.336-1.905.533-2.241-.024-.336-.557.468-1.658 1.025-1.994ZM20.416 17.35a1.178 1.178 0 1 0 1.243 2.002c.553-.344 1.342-1.455.998-2.008-.343-.552-1.689-.337-2.241.006ZM22.018 20.577a1.178 1.178 0 1 0 0 2.356c.65 0 1.907-.527 1.907-1.178 0-.65-1.257-1.178-1.907-1.178ZM21.849 24.145a1.178 1.178 0 0 0-1.217 2.018c.557.336 1.906.533 2.242-.024.336-.557-.468-1.658-1.025-1.994Z" fill="currentColor"/></symbol><symbol viewBox="0 0 36 36" fill="none" id="misc-etc"><path d="M27.7 20c0-.1-.5-4.5-1.1-9.7C26.4 9 25.3 8 24 8H10c-1.3 0-2.4 1-2.6 2.3L5 30.1C4.8 31.6 6 33 7.5 33H16" stroke="currentColor" stroke-width="2" stroke-miterlimit="10" stroke-linecap="round" stroke-linejoin="round"/><path d="M13 8V5c0-2.2 1.8-4 4-4s4 1.8 4 4v3M25 35a6 6 0 1 0 0-12 6 6 0 0 0 0 12Z" stroke="currentColor" stroke-width="2" stroke-miterlimit="10"/><path d="M25 27v4M27 29h-4" stroke="currentColor" stroke-width="2" stroke-miterlimit="10" stroke-linecap="round" stroke-linejoin="round"/></symbol><symbol viewBox="0 0 36 36" fill="none" id="misc-fitness" xmlns="http://www.w3.org/2000/svg"><path d="M18.575 31.275c-1.2 1.2-3.1 1.2-4.2 0l-9.9-9.9c-1.2-1.2-1.2-3.1 0-4.2 1.2-1.2 3.1-1.2 4.2 0l9.9 9.9c1.2 1.1 1.2 3.1 0 4.2ZM31.275 18.575c-1.2 1.2-3.1 1.2-4.2 0l-9.9-9.9c-1.2-1.2-1.2-3.1 0-4.2 1.2-1.2 3.1-1.2 4.2 0l9.9 9.9c1.2 1.1 1.2 3 0 4.2Z" stroke="currentColor" stroke-width="2" stroke-miterlimit="10"/><path d="m22.075 5.175 1.2-1.2c1.3-1.3 3.4-1.3 4.7 0l1.9 1.9 1.9 1.9c1.3 1.3 1.3 3.4 0 4.7l-1.2 1.2M5.175 22.075l-1.2 1.2a3.32 3.32 0 0 0 0 4.7l1.9 1.9 1.9 1.9c1.3 1.3 3.4 1.3 4.7 0l1.2-1.2" stroke="currentColor" stroke-width="2" stroke-miterlimit="10"/><path d="m31.275 4.375-1.4 1.5M5.875 29.875l-1.4 1.4" stroke="currentColor" stroke-width="2" stroke-miterlimit="10" stroke-linecap="round" stroke-linejoin="round"/><path d="m20.007 11.504-8.486 8.485 4.243 4.242 8.485-8.485-4.242-4.242Z" stroke="currentColor" stroke-width="2" stroke-miterlimit="10"/></symbol><symbol viewBox="0 0 36 36" fill="none" id="misc-health" xmlns="http://www.w3.org/2000/svg"><path d="M24.5 32h-13C7.4 32 4 28.6 4 24.5v-13C4 7.4 7.4 4 11.5 4h13c4.1 0 7.5 3.4 7.5 7.5v13c0 4.1-3.4 7.5-7.5 7.5Z" stroke="currentColor" stroke-width="2" stroke-miterlimit="10" stroke-linecap="round" stroke-linejoin="round"/><path d="M22.9 10c-.9 0-1.7.4-2.3 1-.6-.6-1.4-1-2.3-1-1.8 0-3.3 1.5-3.3 3.4 0 1.3.5 2.8 4 5.4l.8.6c.5.4 1.2.4 1.6 0l.8-.6c3.5-2.6 4-4.1 4-5.4 0-1.9-1.5-3.4-3.3-3.4Z" stroke="currentColor" stroke-width="2" stroke-miterlimit="10" stroke-linecap="round" stroke-linejoin="round"/></symbol><symbol viewBox="0 0 400 800" id="misc-iphone" xmlns="http://www.w3.org/2000/svg"><path d="M14 49.2V10.8h40.8zM333.6 9.8h52.6v41z" fill="#fff"/><path d="M388 66.5c0-15.1-4.7-29-13.3-39.1-9.8-11.5-24-17.6-41.1-17.6H66.2c-17.1 0-31.3 6.1-41.1 17.6-8.6 10.1-13.3 24-13.3 39.1v.8l-2 1.1v20.5l2 1.1v20.8l-2 1v51.6l2 1.3v11.6l-2 1.3v51.2l2 1.1-.1 506.7c0 14.4 5.5 27.7 15.4 37.4 9.8 9.5 22.9 14.7 37.1 14.7h271.4c14.1 0 27.3-5.2 37.1-14.7 9.9-9.7 15.4-22.9 15.4-37.4l-.1-520.8 3-.8v-85.2l-3-.9V66.5zm-13.4 670.8c0 19.1-18.6 37.7-37.7 37.7H62.4c-19.1 0-37.7-17.6-37.7-36.7V60c0-19.1 17.6-36.7 36.7-36.7h276.4c19.1 0 36.7 17.6 36.7 36.7l.1 677.3z" fill="#303235"/><path d="M333.6 11.5H66.2c-35.7 0-52.6 27-52.6 54.9v670.2c0 29.1 22.7 50.2 50.6 50.2h271.4c27.9 0 50.6-21.1 50.6-50.2V66.5c0-28-16.9-55-52.6-55zm41 725.8c0 19.1-18.6 37.7-37.7 37.7H62.4c-19.1 0-37.7-17.6-37.7-36.7V60c0-19.1 17.6-36.7 36.7-36.7h276.4c19.1 0 36.7 17.6 36.7 36.7l.1 677.3z" fill="#232525"/><path d="M336.4 15.8H62.9C38.7 15.8 19 35.5 19 59.7v678c0 24.2 19.7 43.9 43.9 43.9h273.6c24.2 0 43.9-19.7 43.9-43.9v-678c-.1-24.2-19.8-43.9-44-43.9zm38.2 721.5c0 19.1-18.6 37.7-37.7 37.7H62.4c-19.1 0-37.7-17.6-37.7-36.7V60c0-19.1 17.6-36.7 36.7-36.7h276.4c19.1 0 36.7 17.6 36.7 36.7l.1 677.3z"/><path d="M380.4 78h5.9v4.9h-5.9zm-366.8.2H19v4.9h-5.4zm0 637.1H19v4.9h-5.4zm366.8 0h7.1v4.9h-7.1z" fill="#303235"/><path d="M102.6 28.1v3.4c0 10.6 8.7 19.3 19.3 19.3h155.5c10.6 0 19.3-8.7 19.3-19.3v-4.9c.6-1.9 2.5-3.3 4.6-3.3V16l-203.5-.1v7.4c2.7 0 4.8 2.1 4.8 4.8z"/><path d="M221.2 34.3h-41.9a3.12 3.12 0 0 1-3.1-3.1v-.5a3.12 3.12 0 0 1 3.1-3.1h41.9a3.12 3.12 0 0 1 3.1 3.1v.5a3.12 3.12 0 0 1-3.1 3.1zm27.2-3.1a6.02 6.02 0 0 1-6 6 6.02 6.02 0 0 1-6-6 6.02 6.02 0 0 1 6-6 6.02 6.02 0 0 1 6 6z" fill="#232525"/></symbol><symbol viewBox="0 0 32 38" fill-rule="evenodd" id="misc-pdf"><path d="M0 2.998A2.996 2.996 0 0 1 2.991 0H24l8 8v27c0 1.657-1.334 3-2.996 3H2.996A3.004 3.004 0 0 1 0 35.002V2.998z" fill="#FF2D55"/><path d="M32 8h-4.998A2.999 2.999 0 0 1 24 4.998V0l8 8z" fill="#A3273F"/><path d="M16.115 9.235c.452.213.358.49.219 1.793-.142 1.345-.618 3.802-1.535 6.22-.918 2.412-2.28 4.783-3.467 6.538-1.186 1.756-2.201 2.897-2.975 3.556-.777.66-1.314.835-1.665.893-.348.058-.506 0-.6-.177-.094-.176-.127-.466-.046-.82.079-.35.268-.76.804-1.285.54-.527 1.426-1.172 2.66-1.77 1.236-.6 2.818-1.157 4.117-1.538a30.03 30.03 0 0 1 3.197-.746 23.98 23.98 0 0 1 2.39-.337 14.241 14.241 0 0 1 2.187 0c.712.06 1.408.175 2.01.323.6.146 1.109.321 1.552.601.442.276.823.657 1.012 1.083.192.423.192.893.033 1.228-.158.337-.476.541-.84.66a2.103 2.103 0 0 1-1.266 0c-.49-.148-1.062-.47-1.662-.894-.601-.425-1.235-.952-2.057-1.77a35.417 35.417 0 0 1-2.692-3.014c-.854-1.083-1.553-2.136-2.028-3.029a11.317 11.317 0 0 1-.933-2.355c-.206-.733-.364-1.464-.427-2.122a7.493 7.493 0 0 1 .03-1.714c.063-.466.16-.82.317-1.055.158-.23.38-.35.539-.408.158-.058.254-.058.348-.073.094-.015.188-.044.333 0 .138.042.32.154.504.268" fill="none" stroke="#FFF" stroke-width="1.4" stroke-linejoin="round"/></symbol><symbol viewBox="0 0 20 20" id="misc-search" xmlns="http://www.w3.org/2000/svg"><g stroke="currentColor" fill="none" stroke-linecap="round" stroke-linejoin="round" stroke-width="2"><circle cx="9.5" cy="9.5" r="6"/><path d="m17.5 17.5-3.758-3.758"/></g></symbol><symbol fill="none" stroke="currentColor" stroke-width="2" stroke-linejoin="round" viewBox="0 0 34 35" id="misc-trophy" xmlns="http://www.w3.org/2000/svg"><path d="M10 33.892a6 6 0 0 1 6-6h4a6 6 0 0 1 6 6H10zm-1-30h18v11a9 9 0 0 1-9 9 9 9 0 0 1-9-9v-11z"/><path d="M18 23.892v4m-9-21H3v3a6 6 0 0 0 6 6h0m18-9h6v3a6 6 0 0 1-6 6h0" stroke-linecap="round"/></symbol><symbol viewBox="0 0 16 32" id="misc-upload" xmlns="http://www.w3.org/2000/svg"><path d="M1 12v12a7 7 0 0 0 14 0V6A5 5 0 0 0 5 6v18a3 3 0 0 0 6 0V11" stroke="currentColor" stroke-width="2" fill="none"/></symbol><symbol viewBox="0 0 48 43" id="misc-warning" xmlns="http://www.w3.org/2000/svg"><path d="M19.971 2.421c1.931-3.228 6.127-3.228 8.058 0l19.123 31.96C49.345 38.047 47.03 43 43.123 43H4.877C.97 43-1.345 38.047.847 34.381l19.124-31.96Z" fill="currentColor"/><path d="M21.6 14.345a2.4 2.4 0 1 1 4.8 0V25.47a2.4 2.4 0 1 1-4.8 0V14.344Z" fill="#fff"/><ellipse cx="24" cy="33.444" rx="2.4" ry="2.389" fill="#fff"/></symbol><symbol viewBox="0 0 36 36" fill="none" id="misc-wear" xmlns="http://www.w3.org/2000/svg"><path d="M23.6 27H12.4C10.5 27 9 25.5 9 23.6V12.4C9 10.5 10.5 9 12.4 9h11.2c1.9 0 3.4 1.5 3.4 3.4v11.2c0 1.9-1.5 3.4-3.4 3.4ZM23 2.8c0-.8-.6-1.4-1.4-1.6-.7-.1-1.9-.2-3.6-.2-1.7 0-2.9.1-3.6.3-.8.2-1.4.8-1.4 1.5v3.6C13 7.8 11.9 9 11.9 9h12.2c-.2-.4-1.1-1.2-1.1-2.6V2.8ZM23 33.2c0 .7-.5 1.3-1.2 1.5-.8.1-2.1.3-3.8.3-1.7 0-3-.1-3.8-.3-.7-.2-1.2-.8-1.2-1.5v-3.6c0-1.4-.9-2.2-1.1-2.6h12.2c-.2.4-1.1 1.2-1.1 2.6v3.6Z" stroke="currentColor" stroke-width="2" stroke-miterlimit="10" stroke-linecap="round" stroke-linejoin="round"/><path d="M22 18c0 2.2-1.8 4-4 4s-4-1.8-4-4 1.8-4 4-4" stroke="currentColor" stroke-width="2" stroke-miterlimit="10" stroke-linecap="round" stroke-linejoin="round"/><path d="M18 19a1 1 0 1 0 0-2 1 1 0 0 0 0 2Z" fill="currentColor"/></symbol><symbol viewBox="0 0 36 36" fill="none" id="misc-yoga" xmlns="http://www.w3.org/2000/svg"><path d="M17.985 30.394c3.717 1.313 8.23.335 11.187-1.435 3.198-1.916 5.146-5.515 5.828-10.01-3.945-1.627-7.8-1.73-10.958.05M17.985 30.394c-3.717 1.313-8.2.335-11.156-1.435C3.629 27.043 1.68 23.444 1 18.95c3.945-1.627 7.8-1.73 10.958.05" stroke="currentColor" stroke-width="2" stroke-linecap="round" stroke-linejoin="round"/><path clip-rule="evenodd" d="M11.929 17.697c0 4.774 2.259 9.172 6.056 12.697 3.798-3.524 6.057-7.923 6.057-12.697 0-4.774-2.259-9.173-6.057-12.697-3.797 3.524-6.056 7.923-6.056 12.697Z" stroke="currentColor" stroke-width="2" stroke-linecap="round" stroke-linejoin="round"/><path d="M13.179 11.684c-2.069-1.57-4.578-2.653-7.375-3.24-1.017 3.224-1.32 6.427-.809 9.396M22.896 11.684c2.068-1.57 4.577-2.653 7.375-3.24 1.017 3.224 1.32 6.427.81 9.396" stroke="currentColor" stroke-width="2" stroke-linecap="round" stroke-linejoin="round"/></symbol><symbol viewBox="0 0 24 20" fill="currentColor" id="social-email" xmlns="http://www.w3.org/2000/svg"><path d="M23 2c.6 0 1 .4 1 1v3c0 .4-.2.7-.5.9l-11 6c-.2.1-.3.1-.5.1s-.3 0-.5-.1l-11-6C.2 6.7 0 6.4 0 6V3c0-.6.4-1 1-1h22Zm-9.6 12.6L24 8.9V21c0 .6-.4 1-1 1H1c-.6 0-1-.4-1-1V8.9l10.6 5.7c.4.3.9.4 1.4.4.5 0 1-.1 1.4-.4Z"/></symbol><symbol viewBox="0 0 20 20" fill="currentColor" id="social-facebook" xmlns="http://www.w3.org/2000/svg"><path d="M18 10a8 8 0 1 0-16 0 8.002 8.002 0 0 0 6.75 7.903v-5.6H6.72V10h2.03V8.238c0-2.005 1.194-3.113 3.022-3.113a12.31 12.31 0 0 1 1.791.156v1.97h-1.01c-.994 0-1.304.617-1.304 1.25V10h2.22l-.355 2.313H11.25v5.6c3.825-.6 6.75-3.9 6.75-7.903z"/></symbol><symbol viewBox="0 0 24 24" fill="currentColor" id="social-instagram" xmlns="http://www.w3.org/2000/svg"><path d="M7.5 2h9A5.5 5.5 0 0 1 22 7.5v9a5.5 5.5 0 0 1-5.5 5.5h-9A5.5 5.5 0 0 1 2 16.5v-9A5.5 5.5 0 0 1 7.5 2ZM12 7c-2.734 0-5 2.235-5 5.02a4.995 4.995 0 0 0 5 5.02c2.774 0 5-2.275 5-5.02C17 9.275 14.736 7 12 7Zm5.25 1a1.25 1.25 0 1 0 0-2.5 1.25 1.25 0 0 0 0 2.5ZM12 15.25A3.265 3.265 0 0 1 8.75 12 3.265 3.265 0 0 1 12 8.75 3.265 3.265 0 0 1 15.25 12 3.265 3.265 0 0 1 12 15.25Z"/></symbol><symbol viewBox="0 0 20 20" fill="currentColor" id="social-linkedin" xmlns="http://www.w3.org/2000/svg"><path fill-rule="evenodd" clip-rule="evenodd" d="M2 3.146C2 2.513 2.53 2 3.182 2h13.636C17.47 2 18 2.513 18 3.146v13.708c0 .633-.53 1.146-1.182 1.146H3.182C2.53 18 2 17.487 2 16.854V3.146Zm6.187 12.248h2.417v-4.035c0-.216.016-.432.08-.586.174-.431.572-.878 1.24-.878.874 0 1.224.662 1.224 1.633v3.866h2.416V11.25c0-2.22-1.192-3.252-2.782-3.252-1.282 0-1.857.7-2.178 1.193v.025h-.016l.016-.025V8.169H8.187c.032.678 0 7.225 0 7.225ZM6.85 8.169v7.225H4.433V8.169H6.85Zm.159-2.235c0 .694-.525 1.248-1.367 1.248h-.016c-.811 0-1.335-.554-1.335-1.248 0-.709.54-1.248 1.367-1.248.826 0 1.335.54 1.351 1.248Z"/></symbol><symbol viewBox="0 0 24 24" fill="currentColor" id="social-twitter" xmlns="http://www.w3.org/2000/svg"><path d="M23 5.17a8.814 8.814 0 0 1-2.592.728 4.619 4.619 0 0 0 1.985-2.56 8.889 8.889 0 0 1-2.868 1.123A4.451 4.451 0 0 0 16.231 3c-2.491 0-4.512 2.072-4.512 4.628 0 .363.039.715.116 1.054-3.75-.193-7.076-2.034-9.303-4.837a4.713 4.713 0 0 0-.611 2.329c0 1.605.797 3.022 2.008 3.852a4.432 4.432 0 0 1-2.046-.577v.057c0 2.243 1.556 4.114 3.622 4.537a4.302 4.302 0 0 1-1.189.163c-.29 0-.574-.027-.85-.082.575 1.838 2.24 3.177 4.216 3.213A8.912 8.912 0 0 1 1 19.255a12.567 12.567 0 0 0 6.919 2.078c8.303 0 12.842-7.051 12.842-13.168 0-.2-.004-.402-.012-.6A9.257 9.257 0 0 0 23 5.17"/></symbol><symbol viewBox="0 0 24 24" fill="currentColor" id="social-youtube" xmlns="http://www.w3.org/2000/svg"><path d="M23.76 7.642s-.234-1.654-.954-2.383c-.912-.956-1.935-.96-2.404-1.016C17.043 4 12.005 4 12.005 4h-.01s-5.038 0-8.397.243c-.469.056-1.491.06-2.404 1.016C.474 5.988.24 7.642.24 7.642S0 9.584 0 11.526v1.82c0 1.943.24 3.885.24 3.885s.234 1.654.954 2.382c.913.956 2.112.926 2.646 1.026 1.92.184 8.16.241 8.16.241s5.043-.007 8.402-.25c.469-.056 1.492-.06 2.404-1.017.72-.728.955-2.382.955-2.382S24 15.289 24 13.347v-1.821c0-1.942-.24-3.884-.24-3.884ZM9.523 15.553V8.81l6.484 3.383-6.484 3.36Z"/></symbol><symbol viewBox="0 0 36 36" id="tariff-clock" xmlns="http://www.w3.org/2000/svg"><g fill="none" stroke="currentColor" stroke-width="2"><path d="M32 18c0 7.732-6.268 14-14 14S4 25.732 4 18 10.268 4 18 4s14 6.268 14 14Z"/><path stroke-linecap="round" stroke-linejoin="round" d="M18 10v8l8 6M4 18h2M30 18h2M18 4v2M18 30v2"/></g></symbol><symbol viewBox="0 0 36 37" id="tariff-clockdot" xmlns="http://www.w3.org/2000/svg"><path fill-rule="evenodd" clip-rule="evenodd" d="M4 18.673c0-7.72 6.28-14 14-14a1 1 0 0 0 0-2h-.02a.255.255 0 0 1-.026 0h-.004l-.008.001-.009.002a15.956 15.956 0 0 0-3.995.539.368.368 0 0 1-.055.002c-.024 0-.048 0-.073.006-.022.006-.04.017-.058.028a.313.313 0 0 1-.043.024 15.86 15.86 0 0 0-3.643 1.523.3.3 0 0 1-.046.014c-.02.005-.04.01-.06.02a.3.3 0 0 0-.064.055.435.435 0 0 1-.042.04 16.047 16.047 0 0 0-3.15 2.427l-.02.013a.095.095 0 0 0-.024.016.136.136 0 0 0-.023.034.173.173 0 0 1-.016.026 16.063 16.063 0 0 0-2.415 3.163.415.415 0 0 1-.036.038c-.018.018-.036.036-.05.059-.01.017-.015.036-.019.054a.25.25 0 0 1-.013.043 15.838 15.838 0 0 0-1.505 3.656.352.352 0 0 1-.023.043c-.012.02-.024.04-.03.064-.006.024-.006.047-.006.071a.35.35 0 0 1-.002.054A15.929 15.929 0 0 0 2 18.673v.012l.001.013v.002L2 18.703v.003l.001.003c.003 1.392.193 2.763.546 4.089a.097.097 0 0 1 .001.02c0 .009 0 .017.002.025.002.009.006.016.01.023a.109.109 0 0 1 .009.019 15.943 15.943 0 0 0 1.556 3.743.166.166 0 0 1 .012.036c.003.013.006.026.013.039.013.021.029.04.045.059l.03.036c.035.059.07.118.103.177.056.097.111.194.171.288a1 1 0 0 0 1.687-1.075A13.954 13.954 0 0 1 4 18.673Zm17.58-13.54c.09.02.17.03.26.03.44 0 .85-.29.96-.74a.994.994 0 0 0-.71-1.22.994.994 0 0 0-1.22.71c-.14.53.18 1.08.71 1.22Zm6.99 3.9c.26 0 .51-.1.71-.3a.987.987 0 0 0-.01-1.41.996.996 0 0 0-1.41 0c-.39.39-.39 1.03 0 1.42.2.19.45.29.71.29Zm-3.11-2.38a1.002 1.002 0 0 1-.87-1.5c.28-.48.89-.64 1.37-.37h-.01c.48.28.65.89.38 1.37-.19.32-.53.5-.87.5Zm5.51 5.47c.17 0 .34-.04.5-.13a1 1 0 1 0-1.01-1.73.99.99 0 0 0-.36 1.36c.19.32.52.5.87.5Zm1.03 6.49c0-.55.44-1 1-1 .55 0 1 .44 1 1v.06c0 1.393-.197 2.737-.533 4.026a.29.29 0 0 0-.002.05c0 .02 0 .042-.005.064a.304.304 0 0 1-.028.063c-.008.016-.017.031-.023.048a15.907 15.907 0 0 1-1.518 3.657.22.22 0 0 0-.013.041.181.181 0 0 1-.018.05c-.034.06-.078.11-.122.16a16.085 16.085 0 0 1-2.384 3.098.125.125 0 0 0-.016.025c-.005.01-.01.02-.018.028a.113.113 0 0 1-.025.016c-.008.004-.015.008-.022.014a16.072 16.072 0 0 1-3.186 2.442c-.012.009-.023.02-.033.03-.014.014-.027.028-.044.038-.023.012-.046.02-.07.03l-.041.016a15.906 15.906 0 0 1-3.647 1.513.307.307 0 0 0-.045.023c-.018.01-.036.022-.057.028a.896.896 0 0 1-.167.02l-.015.002a15.916 15.916 0 0 1-3.941.517H18a1 1 0 0 1 0-2c7.72 0 14-6.28 14-14v-.06Zm-.49-3.62c.12.45.53.74.97.74.08 0 .17-.01.26-.03.53-.15.85-.7.7-1.23a.988.988 0 0 0-1.22-.7c-.54.14-.85.69-.71 1.22ZM9.65 31.173c.28-.48.89-.64 1.37-.36.47.27.64.88.36 1.36-.18.32-.52.5-.87.5a1.002 1.002 0 0 1-.86-1.5Zm4.74 1.03c-.53-.14-1.08.18-1.22.71-.15.53.17 1.08.71 1.22.08.03.17.04.25.04.45 0 .85-.3.97-.75a.994.994 0 0 0-.71-1.22Zm-7.69-2.2a.996.996 0 0 1 0-1.41c.39-.4 1.02-.4 1.41-.01.4.39.4 1.03.01 1.42-.2.19-.45.29-.71.29-.26 0-.51-.1-.71-.29Zm12.003-12.04a.993.993 0 0 0-.703-.29c-.551 0-1 .449-1 1 0 .55.449 1 1 1 .551 0 1-.45 1-1a.993.993 0 0 0-.291-.703l-.003-.003-.003-.003Zm2.297.71c0 1.654-1.346 3-3 3a2.993 2.993 0 0 1-2.815-2H9a1 1 0 0 1 0-2h6.184a2.996 2.996 0 0 1 2.816-2c.462 0 .894.113 1.285.3l6.008-6.007a.999.999 0 1 1 1.414 1.414l-6.008 6.008c.188.39.301.823.301 1.285Z" fill="currentColor"/></symbol><symbol viewBox="0 0 36 36" id="tariff-concierge" xmlns="http://www.w3.org/2000/svg"><g stroke="currentColor" stroke-width="2" fill="none"><path d="M12 18c-2.75 0-5-2.25-5-5V9c0-2.75 2.25-5 5-5s5 2.25 5 5v4c0 2.75-2.25 5-5 5Z"/><path d="m14.953 21.413-2.786 4.826-2.83-4.901C4.553 22.53 1 26.845 1 32h22c0-5.05-3.408-9.295-8.047-10.587Z" stroke-linecap="round" stroke-linejoin="round"/><path d="M7 9s5.124 1.496 9.375-2.412M35 10.153c0 2.845-2.686 5.152-6 5.152a6.773 6.773 0 0 1-1.389-.146c-1.189.774-2.896.833-2.896.833-.567.067-.79-.295-.488-.79 0 0 .458-.69.678-1.292-1.17-.939-1.905-2.272-1.905-3.757C23 7.308 25.686 5 29 5c3.315 0 6 2.308 6 5.153Z"/></g></symbol><symbol viewBox="0 0 36 36" id="tariff-money" xmlns="http://www.w3.org/2000/svg"><path fill="currentColor" d="M31 24v9a1 1 0 0 1-1 1H20a1 1 0 0 1-1-1v-9a1 1 0 0 1 1-1h10a1 1 0 0 1 1 1Zm-2 2v-1h-8v1h8Zm0 2h-8v1h8v-1Zm-8 3v1h8v-1h-8ZM8 25.083A6.005 6.005 0 0 1 12.917 30h4.021a1 1 0 0 1 0 2H7a1 1 0 0 1-1-1V3a1 1 0 0 1 1-1h18a1 1 0 0 1 1 1v18a1 1 0 0 1-2 0V8.917A6.005 6.005 0 0 1 19.083 4h-6.166A6.005 6.005 0 0 1 8 8.917v16.166Zm0 2.043V30h2.874A4.007 4.007 0 0 0 8 27.126ZM21.126 4A4.007 4.007 0 0 0 24 6.874V4h-2.874ZM10.874 4H8v2.874A4.007 4.007 0 0 0 10.874 4ZM19 17a3 3 0 1 0-6 0 3 3 0 0 0 6 0Zm2 0a5 5 0 1 1-10 0 5 5 0 0 1 10 0Z"/></symbol><symbol viewBox="0 0 36 36" id="tariff-moneybag" xmlns="http://www.w3.org/2000/svg"><path fill="currentColor" fill-rule="evenodd" d="M8 4a1 1 0 0 0-1 1v3H4a1 1 0 0 0-1 1v8H1a1 1 0 0 0-1 1v5a1 1 0 0 0 1 1h2v7a1 1 0 0 0 1 1h23.471c1.04 0 2.143-.149 3.015-.68.955-.58 1.514-1.548 1.514-2.85V7c0-1.652-1.348-3-3-3H8zM5 24v6h22.471c.909 0 1.57-.141 1.975-.388.323-.196.554-.494.554-1.142V9.828A2.98 2.98 0 0 1 29 10H5v7h6a1 1 0 0 1 1 1v5a1 1 0 0 1-1 1H5zm-.968-5H10v3H2v-3h1.968a1.128 1.128 0 0 0 .064 0zM29 6c.548 0 1 .452 1 1s-.452 1-1 1H9V6h20z"/></symbol><symbol viewBox="0 0 36 36" fill="none" id="tariff-ottonova" xmlns="http://www.w3.org/2000/svg"><path clip-rule="evenodd" d="M27 33H10c-3.3 0-7-2.7-7-6V9c0-3.3 2.7-6 6-6h19c3.3 0 5 2.7 5 6v18c0 3.3-2.7 6-6 6Z" stroke="currentColor" stroke-width="2" stroke-linecap="round" stroke-linejoin="round"/><path d="M18.174 12.54a5.517 5.517 0 0 1 5.418 5.466h2.407v-.017a7.998 7.998 0 0 0-7.825-7.978v2.53Z" fill="currentColor"/><path d="M23.527 17.2c.043.276.065.559.065.847 0 3.044-2.475 5.512-5.528 5.512-3.053 0-5.527-2.468-5.527-5.512 0-2.965 2.349-5.384 5.293-5.506.056-.003.113-.004.17-.005 0 0 .06-.004.17 0l.406.011c.748.022 2.13-.057 3.54-.689.216-.097.413-.205.592-.32a4.07 4.07 0 0 0 1.496-1.701c.226-.48.279-.837.279-.837s-.6.55-1.72.837c-.395.1-.853.169-1.374.169h-3.39c-.056 0-.113 0-.17.002A7.998 7.998 0 0 0 18 26a7.998 7.998 0 0 0 7.96-8.8h-2.432Z" fill="currentColor"/></symbol><symbol viewBox="0 0 36 36" id="tariff-shield" xmlns="http://www.w3.org/2000/svg"><g stroke="currentColor" stroke-width="2" fill="none"><path d="M6.46 5.366C10.225 3.122 14.15 2 18 2c3.847 0 7.617 1.12 11.549 3.36.849.485 1.373 1.32 1.395 2.225.2 8.189-.133 15.13-.999 16.823C29.031 26.197 25.107 29.394 18 34c-6.895-4.435-10.93-7.633-11.931-9.592-.949-1.858-1.266-8.82-.951-16.883.034-.873.534-1.677 1.342-2.16Z"/><path d="m14.485 16.718 2.333 2.51 4.667-5.856"/></g></symbol><symbol viewBox="0 0 36 36" id="tariff-umbrella" xmlns="http://www.w3.org/2000/svg"><g fill="currentColor" fill-rule="evenodd" clip-rule="evenodd"><path d="M19 .5a1 1 0 0 1 1 1v1a1 1 0 1 1-2 0v-1a1 1 0 0 1 1-1z"/><path d="M2 16.456C2.32 8.06 9.907 1.5 19.02 1.5c8.873 0 16.293 6.215 16.977 14.294a1 1 0 0 1-1.402.998c-2.968-1.317-6.56-1.116-9.333.563a1 1 0 0 1-1.036 0c-2.955-1.79-6.831-1.895-9.894-.292a1 1 0 0 1-.928 0c-3.06-1.601-6.932-1.497-9.886.287a1 1 0 0 1-1.516-.894zm2.192-1.665c3.087-1.228 6.659-1.14 9.675.27 3.416-1.597 7.547-1.498 10.876.288 2.745-1.472 6.035-1.8 9.02-.973C32.41 8.237 26.39 3.5 19.019 3.5 11.48 3.5 5.36 8.45 4.192 14.79z"/><path d="M19 17.5a1 1 0 0 1 1 1v1.1a5.009 5.009 0 0 1 3.636 3.025 1 1 0 0 1-1.854.75A3.001 3.001 0 0 0 16 24.5h2a1 1 0 1 1 0 2h-2v1h2a1 1 0 1 1 0 2h-1.83a3.001 3.001 0 0 0 2.805 2H19a2.999 2.999 0 0 0 2.626-1.547 1 1 0 0 1 1.748.97 5.008 5.008 0 0 1-3.392 2.48l.018 1.08a1 1 0 0 1-2 .034l-.018-1.12A5.006 5.006 0 0 1 14.1 29.5H13a1 1 0 1 1 0-2h1v-1h-1a1 1 0 1 1 0-2h1a5.002 5.002 0 0 1 4-4.9v-1.1a1 1 0 0 1 1-1z"/></g></symbol><symbol viewBox="0 0 18 26" id="trust-badge" xmlns="http://www.w3.org/2000/svg"><path d="M14 19.188v5.436a1 1 0 0 1-1.514.858L9.514 23.7a1 1 0 0 0-1.028 0l-2.972 1.783A1 1 0 0 1 4 24.624v-5.436c1.5.767 3.2 1.2 5 1.2 1.8 0 3.5-.433 5-1.2Zm-5-.802c-4.97 0-9-4.032-9-9.005C0 4.407 4.03.375 9 .375s9 4.032 9 9.006c0 4.973-4.03 9.005-9 9.005ZM12.137 6.23 8.006 10.87 6.06 9.137a1 1 0 1 0-1.33 1.494l2.692 2.4a1 1 0 0 0 1.412-.082l4.796-5.388a1.001 1.001 0 0 0-1.493-1.331Z" fill="#D1B270"/></symbol><symbol viewBox="0 0 24 24" id="trust-germany" xmlns="http://www.w3.org/2000/svg"><path d="M12 0c5.225 0 9.67 3.34 11.317 8H.683C2.33 3.34 6.775 0 12 0Z"/><path d="M23.317 8A11.98 11.98 0 0 1 24 12c0 1.403-.24 2.75-.683 4H.683A11.98 11.98 0 0 1 0 12c0-1.403.24-2.75.683-4h22.634Z" fill="#F72032"/><path d="M23.317 16c-1.648 4.661-6.092 8-11.317 8-5.225 0-9.67-3.339-11.317-8h22.634Z" fill="#F5B543"/></symbol><symbol viewBox="0 0 18 24" id="trust-lock" xmlns="http://www.w3.org/2000/svg"><path d="M15.75 8h-1.125V5.714C14.625 2.56 12.105 0 9 0S3.375 2.56 3.375 5.714V8H2.25C1.007 8 0 9.023 0 10.286v11.428C0 22.977 1.007 24 2.25 24h13.5c1.243 0 2.25-1.023 2.25-2.286V10.286C18 9.023 16.993 8 15.75 8ZM9 18.286c-1.243 0-2.25-1.023-2.25-2.286 0-1.263 1.007-2.286 2.25-2.286s2.25 1.023 2.25 2.286c0 1.263-1.007 2.286-2.25 2.286ZM12.488 8H5.513V5.714C5.513 3.76 7.075 2.171 9 2.171c1.924 0 3.488 1.589 3.488 3.543V8Z" fill="currentColor"/></symbol></svg>